<?xml version="1.0" encoding="UTF-8"?>
<svg width="12px" height="20px" viewBox="0 0 12 20" version="1.1" xmlns="http://www.w3.org/2000/svg" xmlns:xlink="http://www.w3.org/1999/xlink">
    <!-- Generator: sketchtool 41.1 (35376) - http://www.bohemiancoding.com/sketch -->
    <title>B1B678BD-170D-49A1-9B18-B513E8E73DD9</title>
    <desc>Created with sketchtool.</desc>
    <defs></defs>
    <g id="desktop" stroke="none" stroke-width="1" fill="none" fill-rule="evenodd">
        <g id="article-1024" transform="translate(-960.000000, -6961.000000)" fill="#67B2D0">
            <g id="footer" transform="translate(0.000000, 6928.000000)">
                <g id="Group-6" transform="translate(750.000000, 33.000000)">
                    <path d="M215.815215,10.3220227 C218.673233,10.3220227 220.99745,8.00773324 220.99745,5.16224672 C220.99745,2.31527778 218.673481,-3.55271368e-15 215.815215,-3.55271368e-15 C212.957444,-3.55271368e-15 210.632979,2.31552485 210.632979,5.16224672 C210.632979,8.00773324 212.957444,10.3220227 215.815215,10.3220227 M215.815215,3.02510524 C216.998408,3.02510524 217.960837,3.98373055 217.960837,5.16224672 C217.960837,6.33977461 216.998159,7.29839992 215.815215,7.29839992 C214.632766,7.29839992 213.670089,6.33977461 213.670089,5.16224672 C213.669841,3.98348348 214.633014,3.02510524 215.815215,3.02510524 Z M217.911723,14.532315 C218.966675,14.2929057 219.984171,13.8775838 220.920803,13.2912905 C221.630223,12.8460733 221.844041,11.9124019 221.397305,11.2062805 C220.950817,10.4989237 220.013937,10.2854566 219.303773,10.7309209 C217.180723,12.0603959 214.448218,12.0594076 212.326904,10.7309209 C211.616492,10.2854566 210.679364,10.4989237 210.23362,11.2062805 C209.786636,11.912896 210.000455,12.8465674 210.709378,13.2912905 C211.645762,13.8768426 212.663258,14.2931528 213.717962,14.532315 L210.821,17.4183207 C210.228659,18.0088142 210.228659,18.9662041 210.821744,19.5566976 C211.11841,19.8514501 211.506359,19.999197 211.894555,19.999197 C212.283496,19.999197 212.67194,19.8514501 212.968607,19.5566976 L215.814719,16.7213408 L218.662567,19.5569446 C219.254659,20.1476851 220.215849,20.1476851 220.808189,19.5569446 C221.402266,18.9662041 221.402266,18.00832 220.808189,17.4188149 L217.911723,14.532315 Z" id="Combined-Shape"></path>
                </g>
            </g>
        </g>
    </g>
</svg>