<?xml version="1.0" encoding="UTF-8"?>
<svg width="21px" height="17px" viewBox="0 0 21 17" version="1.1" xmlns="http://www.w3.org/2000/svg" xmlns:xlink="http://www.w3.org/1999/xlink">
    <!-- Generator: sketchtool 41.1 (35376) - http://www.bohemiancoding.com/sketch -->
    <title>89EA4290-C151-4D8A-BFCA-A4130F990DF2</title>
    <desc>Created with sketchtool.</desc>
    <defs></defs>
    <g id="desktop" stroke="none" stroke-width="1" fill="none" fill-rule="evenodd">
        <g id="article-1024" transform="translate(-887.000000, -6963.000000)" fill="#67B2D0">
            <g id="footer" transform="translate(0.000000, 6928.000000)">
                <g id="Group-6" transform="translate(750.000000, 33.000000)">
                    <path d="M158,4.00218657 C157.227462,4.34193106 156.396596,4.57160449 155.525086,4.67429649 C156.414901,4.14577089 157.097775,3.30978421 157.420131,2.31238046 C156.587404,2.8018585 155.665322,3.15697605 154.683982,3.34821685 C153.898103,2.51868685 152.778388,2 151.538605,2 C149.15956,2 147.230077,3.91210047 147.230077,6.26971205 C147.230077,6.60453717 147.268239,6.93013845 147.34208,7.24282637 C143.761413,7.06480641 140.586872,5.36516154 138.461617,2.78125861 C138.090861,3.41186129 137.878335,4.14577089 137.878335,4.92825935 C137.878335,6.40899192 138.639394,7.71631644 139.794788,8.48189454 C139.088955,8.45975734 138.424076,8.26790162 137.843587,7.94752717 C137.842966,7.96566738 137.842966,7.98380758 137.842966,8.00164032 C137.842966,10.0702385 139.328783,11.7957101 141.29953,12.187723 C140.938392,12.2854956 140.557087,12.337764 140.164613,12.337764 C139.886313,12.337764 139.616701,12.3110149 139.353603,12.2615136 C139.902136,13.9574689 141.49282,15.1919252 143.378557,15.2263608 C141.903599,16.3716534 140.046405,17.054217 138.027258,17.054217 C137.680082,17.054217 137.336318,17.034232 137,16.9945695 C138.905904,18.2062736 141.171084,18.9131267 143.604113,18.9131267 C151.528987,18.9131267 155.862645,12.4075576 155.862645,6.76441693 C155.862645,6.57963282 155.858612,6.39515617 155.849925,6.21221683 C156.69227,5.61020803 157.422613,4.85846568 158,4.00218657" id="Fill-4"></path>
                </g>
            </g>
        </g>
    </g>
</svg>