<?xml version="1.0" encoding="UTF-8"?>
<svg width="25px" height="14px" viewBox="0 0 25 14" version="1.1" xmlns="http://www.w3.org/2000/svg" xmlns:xlink="http://www.w3.org/1999/xlink">
    <!-- Generator: sketchtool 41.1 (35376) - http://www.bohemiancoding.com/sketch -->
    <title>13B6A594-41AE-496E-8182-82EBF6CA850B</title>
    <desc>Created with sketchtool.</desc>
    <defs></defs>
    <g id="desktop" stroke="none" stroke-width="1" fill="none" fill-rule="evenodd">
        <g id="article-1024" transform="translate(-811.000000, -6964.000000)" fill="#67B2D0">
            <g id="footer" transform="translate(0.000000, 6928.000000)">
                <g id="Group-6" transform="translate(750.000000, 33.000000)">
                    <path d="M73.0067986,16.9412588 L74.4735828,16.9412588 C74.4735828,16.9412588 74.9165428,16.8924394 75.1430466,16.6487536 C75.3512105,16.4247897 75.3445992,16.0044652 75.3445992,16.0044652 C75.3445992,16.0044652 75.3158753,14.0363021 76.2292117,13.7464489 C77.1298858,13.4608165 78.2861984,15.6486106 79.5117246,16.4899319 C80.4385079,17.1263764 81.1427839,16.98709 81.1427839,16.98709 L84.4200302,16.9412588 C84.4200302,16.9412588 86.1343102,16.8354773 85.3214139,15.4876225 C85.2548522,15.3775455 84.8478251,14.4905798 82.8846299,12.6682771 C80.8295109,10.7609982 81.1050208,11.0695648 83.5803523,7.7703555 C85.0878131,5.76117971 85.6903791,4.53460758 85.5020866,4.00932334 C85.3226839,3.50884097 84.2138459,3.64103047 84.2138459,3.64103047 L80.5239697,3.66385268 C80.5239697,3.66385268 80.2502527,3.62657516 80.0475049,3.74789517 C79.8491646,3.86656316 79.7219056,4.14379132 79.7219056,4.14379132 C79.7219056,4.14379132 79.1376422,5.69846533 78.3590726,7.02080855 C76.7160232,9.81075776 76.058923,9.95844842 75.7903232,9.78494737 C75.1654579,9.38113255 75.3215902,8.16303937 75.3215902,7.29743907 C75.3215902,4.59354938 75.7317176,3.46622209 74.5229624,3.17435186 C74.1219117,3.07757227 73.826493,3.01355057 72.8006517,3.00309194 C71.483986,2.98971985 70.369844,3.00712598 69.738853,3.31625294 C69.3190514,3.52183955 68.9951704,3.97985244 69.1925395,4.00622311 C69.4364495,4.03868218 69.9886273,4.15525846 70.2814313,4.55361986 C70.6596599,5.06818401 70.6464372,6.22337605 70.6464372,6.22337605 C70.6464372,6.22337605 70.8637524,9.40627059 70.1390073,9.80153176 C69.6416999,10.0727089 68.9593496,9.51911164 67.4944703,6.98790125 C66.7440269,5.69133106 66.1772444,4.25801441 66.1772444,4.25801441 C66.1772444,4.25801441 66.0681012,3.990199 65.8731599,3.84684119 C65.6367204,3.67315338 65.30634,3.61809621 65.30634,3.61809621 L61.7998632,3.64099312 C61.7998632,3.64099312 61.2735705,3.65570989 61.0801981,3.88456693 C60.9081537,4.08832328 61.0664524,4.50928278 61.0664524,4.50928278 C61.0664524,4.50928278 63.8114669,10.9316978 66.9199558,14.1682675 C69.7704904,17.1360506 73.0067986,16.9412588 73.0067986,16.9412588" id="Fill-1"></path>
                </g>
            </g>
        </g>
    </g>
</svg>