<?xml version="1.0" standalone="no"?>
<!DOCTYPE svg PUBLIC "-//W3C//DTD SVG 1.1//EN" "http://www.w3.org/Graphics/SVG/1.1/DTD/svg11.dtd">
<svg xmlns="http://www.w3.org/2000/svg">
<metadata>Generated by Fontastic.me</metadata>
<defs>
<font id="warhead" horiz-adv-x="512">
<font-face font-family="warhead" units-per-em="512" ascent="480" descent="-32"/>
<missing-glyph horiz-adv-x="512" />

<glyph glyph-name="w-clip" unicode="&#99;" d="M0 362c0-34 12-68 37-93l230-228c6-7 18-8 24-1 7 6 6 18 0 24l-230 228c-19 19-28 44-28 70 0 49 43 86 92 86 24 0 47-9 65-27l250-250c11-11 17-25 17-37 0-17-5-32-16-44-23-22-58-22-81 0-82 83-165 166-248 248-9 12-10 25-2 33 10 9 24 8 31 1 75-75 151-150 226-225 6-7 18-8 25-1 6 6 6 18-1 24l-226 225c-27 22-60 22-79 0-21-22-18-56 1-78 87-87 175-176 250-250 35-36 92-36 127 0 19 18 27 43 27 67 0 23-11 44-27 60l-250 250c-25 25-56 38-89 38-66 0-125-52-125-120z"/>
<glyph glyph-name="w-face" unicode="&#100;" d="M467 77c0-18-14-32-32-32l-367 0c-18 0-33 14-33 32l0 367c0 18 15 33 33 33l367 0c18 0 32-15 32-33l0-367z m-32 435l-367 0c-37 0-68-31-68-68l0-367c0-37 31-68 68-68l367 0c37 0 68 31 68 68l0 367c0 37-31 68-68 68z m-277-156c21 0 38-17 38-38 0-21-17-38-38-38-21 0-37 17-37 38 0 21 16 38 37 38m173 0c21 0 38-17 38-38 0-21-17-38-38-38-21 0-38 17-38 38 0 21 17 38 38 38m-80-195c-36 0-70 16-94 44l-27-24c31-35 75-55 121-55 46 0 89 19 119 53l-26 23c-24-26-57-41-93-41"/>
<glyph glyph-name="w-b" unicode="&#101;" d="M207 282c36 0 62 4 80 12 16 8 30 19 39 34 9 14 13 33 13 56 0 22-4 41-13 55-9 15-22 26-39 33-16 8-43 12-80 11l0-201z m0-30l0-164 0-19c0-13 3-24 10-31 7-7 18-10 31-10 20 0 39 4 56 13 17 9 30 22 39 39 9 17 14 36 14 57 0 24-6 45-17 64-11 19-26 33-46 40-19 8-48 11-87 11z m138 19c48-11 83-25 102-41 28-23 42-52 42-89 0-38-15-70-46-95-38-31-93-46-166-46l-260 0 0 14c24 0 40 2 48 7 9 4 15 10 18 17 3 7 5 24 5 52l0 332c0 28-2 45-5 52-3 8-9 13-18 18-9 4-24 6-48 6l0 14 245 0c59 0 101-5 125-16 25-10 44-26 58-46 14-21 21-43 21-67 0-24-9-46-27-66-18-19-49-34-94-46z"/>
<glyph glyph-name="w-i" unicode="&#102;" d="M309 14l-4-14-211 0 5 14c21 0 35 2 42 5 11 5 19 10 25 18 8 12 16 33 25 63l89 309c8 26 12 45 12 58 0 7-2 12-5 17-3 5-8 8-15 10-7 3-20 4-39 4l4 14 198 0-4-14c-16 0-28-1-36-5-11-5-20-12-26-22-6-9-13-30-23-62l-88-309c-8-28-12-46-12-54 0-6 1-12 4-16 4-4 9-8 15-10 7-3 22-5 44-6"/>
<glyph glyph-name="w-arr" unicode="&#103;" d="M92 370c17 0 43-11 55-23l61-62c0 0 9-7 17 1 8 8 1 17 1 17l-61 62c-17 17-49 30-73 30l-79 0c-7 0-13-5-13-12 0-7 6-13 13-13z m339-156c-5 5-13 5-18 0-5-5-5-13 0-18l54-54-49 0c-17 0-43 11-56 23l-61 62c0 0-9 8-18 0-8-9 1-18 1-18l61-62c17-17 49-30 73-30l49 0-54-55c-5-5-5-13 0-18 2-2 5-4 9-4 3 0 6 2 9 4l75 76c5 5 5 13 0 18z m36 156l-54-54c-5-5-5-13 0-18 2-3 5-4 9-4 3 0 6 1 9 4l75 76c5 5 5 13 0 18l-75 76c-5 5-13 5-18 0-5-5-5-13 0-18l54-55-49 0c-24 0-56-13-73-30l-198-200c-12-12-38-23-55-23l-79 0c-7 0-13-6-13-13 0-7 6-12 13-12l79 0c24 0 56 13 73 30l197 200c13 12 39 23 56 23z"/>
<glyph glyph-name="w-fb" unicode="&#104;" d="M357 256l-72 0 0-256-106 0 0 256-51 0 0 90 51 0 0 59c0 42 19 107 107 107l79 0 0-88-58 0c-9 0-22-5-22-25l0-53 81 0z"/>
<glyph glyph-name="w-like" unicode="&#105;" d="M442 175c-8-22-16-44-25-64-13-28-44-44-74-38l-191 40-42 0 4 142 23 4 5 9c11 21 25 40 41 58 12 13 22 21 32 30 11 9 23 19 36 35 11 12 21 26 29 40 11-18 14-39 9-59l-41-82 29-4c38-5 73-7 108-9 26-2 52-4 79-7 1 0 3-1 3-2 1 0 1-1 1-3-6-30-14-61-26-90z m-400 70l30 4-4-136-25 0z m427 66c-27 3-55 5-81 7-25 1-50 3-76 6l16 32 1 1c9 34 4 70-16 99l-8 12c-6 9-16 14-26 14-11-1-21-7-26-17-9-18-20-34-32-48-12-13-21-21-32-30-11-9-22-18-36-33-16-17-30-37-43-57l-78-12c-18-3-32-19-32-37l2-140c0-20 17-36 37-36l109 0 186-40c7-1 15-2 22-2 42 0 81 24 99 64 10 21 19 43 27 67 11 31 21 64 27 97 3 12 0 25-7 35-9 10-21 17-33 18z"/>
<glyph glyph-name="w-medal" unicode="&#106;" d="M107 160c0 77 62 139 138 139 77 0 139-62 139-139 0-77-62-139-139-139-76 0-138 62-138 139z m298 0c0 88-71 160-160 160-88 0-160-72-160-160 0-88 72-160 160-160 89 0 160 72 160 160z m-234 0c0 41 33 75 74 75 42 0 75-34 75-75 0-41-33-75-75-75-41 0-74 34-74 75m170 0c0 53-43 96-96 96-53 0-96-43-96-96 0-53 43-96 96-96 53 0 96 43 96 96m-192 331l192 0 0-118c0-6 5-10 11-10 6 0 11 4 11 10l0 128c0 6-5 11-11 11l-213 0c-6 0-11-5-11-11l0-128c0-6 5-10 11-10 6 0 10 4 10 10z m-3-110c-4 4-11 4-15 0-4-4-4-11 0-15l64-64c4-4 11-4 15 0 4 4 4 11 0 15z m134-64c-4-4-4-11 0-15 5-4 11-4 16 0l64 64c4 4 4 11 0 15-5 4-11 4-16 0z m-88-18l21 0 0 202-21 0z m85 0l22 0 0 202-22 0z"/>
<glyph glyph-name="w-od" unicode="&#107;" d="M251 248c73 0 133 59 133 132 0 73-60 132-133 132-73 0-132-59-132-132 0-73 59-132 132-132m0 187c31 0 55-25 55-55 0-30-24-55-55-55-30 0-55 25-55 55 0 30 25 55 55 55z m54-295c27 6 53 17 77 32 18 11 24 35 12 53-11 18-35 24-53 12-55-34-125-34-179 0-18 12-42 6-54-12-11-18-6-42 13-53 24-15 50-26 77-32l-75-74c-15-15-15-40 0-55 8-7 18-11 28-11 10 0 20 4 27 11l73 73 73-73c15-15 40-15 55 0 15 15 15 40 0 55z"/>
<glyph glyph-name="w-star" unicode="&#108;" d="M340 213c-6-5-8-13-6-20l41-129-109 80c-3 2-6 3-10 3-4 0-7-1-10-3l-109-80 41 129c2 7 0 15-6 20l-100 73 123 0c8 0 14 5 17 12l44 138 44-138c3-7 9-12 17-12l123 0z m154 109l-164 0-57 178c-3 7-9 12-17 12-8 0-14-5-17-12l-57-178-164 0c-8 0-15-6-17-13-2-7 0-16 6-20l134-98-54-168c-2-7 0-15 6-20 6-4 15-4 21 0l142 104 142-104c3-2 7-3 10-3 4 0 8 1 11 3 6 5 8 13 6 20l-54 168 134 98c6 4 8 13 6 20-2 8-9 13-17 13z"/>
<glyph glyph-name="w-tag" unicode="&#109;" d="M282 461l169-20 21-168-216-215c-10-10-28-10-38 0l-171 169z m-45-444c16 0 31 6 42 17l228 227-25 210-212 25-270-269 194-193c11-11 26-17 43-17z m73 328c6 6 14 9 22 9 9 0 17-3 23-10 6-5 9-13 9-22 0-8-3-16-9-22-12-12-33-12-45 0-12 13-12 32 0 45m22-87c18 0 34 6 47 19 12 12 19 28 19 45 0 18-7 34-20 46-12 12-28 19-46 19-17 0-33-6-46-19-25-25-25-66 1-91 12-13 28-19 45-19"/>
<glyph glyph-name="w-tw" unicode="&#110;" d="M512 414c-19-8-39-13-60-16 21 13 38 33 46 58-20-12-43-21-67-26-19 21-46 33-77 33-58 0-105-46-105-104 0-8 1-16 3-24-87 5-165 46-216 109-9-15-15-33-15-52 0-36 19-68 47-87-17 1-33 5-47 13 0 0 0-1 0-1 0-51 36-93 84-102-9-3-18-4-28-4-7 0-13 1-20 2 14-41 53-71 99-72-36-28-82-45-131-45-8 0-17 1-25 2 46-30 102-47 161-47 193 0 299 158 299 296 0 5 0 9 0 14 20 14 38 33 52 53"/>
<glyph glyph-name="w-vk" unicode="&#111;" d="M253 114l30 0c0 0 9 1 14 6 4 4 4 13 4 13 0 0 0 40 18 46 19 6 42-39 68-56 19-13 33-10 33-10l67 1c0 0 35 2 19 30-2 2-10 20-50 57-42 39-37 33 14 101 31 41 43 66 39 77-3 10-26 7-26 7l-76 0c0 0-5 1-9-2-4-2-7-8-7-8 0 0-12-32-28-59-34-57-47-60-53-57-12 9-9 34-9 51 0 56 8 79-17 85-8 2-14 3-35 3-27 1-50 0-63-6-8-4-15-14-11-14 5-1 17-3 23-11 7-11 7-35 7-35 0 0 4-65-10-73-11-5-25 6-55 58-15 26-26 56-26 56 0 0-3 5-7 8-5 4-11 5-11 5l-72-1c0 0-11 0-15-5-3-4 0-13 0-13 0 0 56-131 120-197 58-61 124-57 124-57"/>
<glyph glyph-name="w-point" unicode="&#112;" d="M512 256c0-141-115-256-256-256-141 0-256 115-256 256 0 141 115 256 256 256 141 0 256-115 256-256z"/>
<glyph glyph-name="w-s" unicode="&#113;" d="M16 224l474 0 0 46-474 0z m108 66l167 0-57 28c-31 15-52 29-62 43-11 13-16 29-16 47 0 15 7 28 21 41 14 12 33 18 56 18 30 0 55-9 75-26 19-18 35-51 48-99l16 0 0 154-16 0c-4-8-8-13-11-15-2-3-7-4-12-4-5 0-17 3-33 8-26 7-47 11-65 11-40 0-73-13-99-37-25-25-38-57-38-94 0-28 7-52 22-71 1-1 2-2 4-4m139-86c21-12 37-23 46-33 16-15 24-34 24-57 0-18-7-35-21-48-15-13-33-20-56-20-32 0-61 12-87 35-26 24-44 58-53 104l-16 0 0-161 16 0c4 9 10 13 18 13 7 0 16-2 27-5 35-10 67-15 94-15 39 0 73 13 105 38 31 25 46 58 46 99 0 18-4 35-11 50z"/>
<glyph glyph-name="w-share" unicode="&#114;" d="M126 356c54 0 98-44 98-98 0-54-44-98-98-98-54 0-98 44-98 98 0 54 44 98 98 98m296-324c-32 0-58 26-58 58 0 32 26 58 58 58 32 0 58-26 58-58 0-32-26-58-58-58m0 144c-26 0-50-12-66-32l-114 64c7 16 10 32 10 50 0 18-4 36-12 54-1 0-2 4-4 8-3 4-5 7-5 8-23 35-62 56-105 56-69 0-126-57-126-126 0-69 57-126 126-126 40 0 78 19 102 52l113-65c-4-10-6-20-6-29 0-47 39-86 86-86 48 0 86 39 86 86 1 23-8 44-24 60-16 17-38 26-61 26m0 308c32 0 58-26 58-58 0-32-26-58-58-58-32 0-58 26-58 58 0 32 26 58 58 58m-158-162c2 0 4 0 6 1l86 49c15-20 40-32 66-32 47 0 86 39 86 86 0 47-39 86-86 86-47 0-86-39-86-86 0-10 2-20 5-29l-85-49c-4-3-9-11-4-19 3-5 8-7 12-7"/>
<glyph glyph-name="w-loupe" unicode="&#115;" d="M391 148c-8 8-19 8-27 0-8-8-8-19 0-27l110-110c8-8 19-8 27 0 8 8 8 19 0 27z m-187 320c-88 0-160-72-160-160 0-88 72-160 160-160 88 0 160 72 160 160 0 88-72 160-160 160m-2-355c-108 0-197 88-197 197 0 108 89 197 197 197 109 0 197-89 197-197 0-109-88-197-197-197"/>
<glyph glyph-name="w-arr-down" unicode="&#116;" d="M39 387c-11 11-26 11-36 0-11-10-11-25 0-36l231-231c11-11 26-11 37 0l231 231c11 11 11 26 0 36-11 11-25 11-36 0l-217-217z"/>
<glyph glyph-name="w-comment" unicode="&#117;" d="M461 461c0 4 0 4-3 4l-404 0c-3 0-3 0-3-4l0-303c0-3 0-3 3-3l328 0 79-57z m48 0l0-455-142 101-313 0c-29 0-51 23-51 51l0 303c0 29 22 51 51 51l404 0c29 0 51-22 51-51z"/>
<glyph glyph-name="w-burger" unicode="&#118;" d="M38 474l436 0c21 0 38-18 38-39 0-21-17-38-38-38l-436 0c-21 0-38 17-38 38 0 21 17 39 38 39z m0-359l436 0c21 0 38-17 38-38 0-21-17-39-38-39l-436 0c-21 0-38 18-38 39 0 21 17 38 38 38z m0 179l436 0c21 0 38-17 38-38 0-21-17-38-38-38l-436 0c-21 0-38 17-38 38 0 21 17 38 38 38z"/>
<glyph glyph-name="w-g" unicode="&#119;" d="M318 255c0 10-1 19-2 27l-154 0 0-56 93 0c-4-24-28-70-93-70-55 0-100 46-100 103 0 56 45 102 100 102 32 0 53-13 65-25l44 42c-28 27-65 43-109 43-89 0-162-73-162-162 0-90 73-163 162-163 94 0 156 66 156 159z m192 27l-46 0 0 46-46 0 0-46-47 0 0-47 47 0 0-46 46 0 0 46 46 0z"/>
<glyph glyph-name="w-in" unicode="&#120;" d="M114 341l-108 0 0-325 108 0z m7 100c0 31-23 55-60 55-37 0-61-24-61-55 0-31 23-56 60-56l0 0c38 0 61 25 61 56z m160-147l0 47-107 0c0 0 1-31 0-325l107 0 0 181c0 10 1 20 4 27 8 19 25 39 55 39 39 0 55-30 55-73l0-174 107 0 0 186c0 100-53 146-124 146-57 0-83-31-97-54z"/>
</font>
</defs>
</svg>
