<?xml version="1.0" encoding="UTF-8"?>
<svg width="12px" height="20px" viewBox="0 0 12 20" version="1.1" xmlns="http://www.w3.org/2000/svg" xmlns:xlink="http://www.w3.org/1999/xlink">
    <!-- Generator: sketchtool 41.2 (35397) - http://www.bohemiancoding.com/sketch -->
    <title>CB6E9FBD-B4B2-4215-A293-04FF797AB88E</title>
    <desc>Created with sketchtool.</desc>
    <defs></defs>
    <g id="desktop" stroke="none" stroke-width="1" fill="none" fill-rule="evenodd">
        <g id="main-1024" transform="translate(-907.000000, -40.000000)" fill="#577B89">
            <g id="socials" transform="translate(735.000000, 40.000000)">
                <path d="M177.815215,10.3220227 C180.673233,10.3220227 182.99745,8.00773324 182.99745,5.16224672 C182.99745,2.31527778 180.673481,3.55271368e-15 177.815215,3.55271368e-15 C174.957444,3.55271368e-15 172.632979,2.31552485 172.632979,5.16224672 C172.632979,8.00773324 174.957444,10.3220227 177.815215,10.3220227 M177.815215,3.02510524 C178.998408,3.02510524 179.960837,3.98373055 179.960837,5.16224672 C179.960837,6.33977461 178.998159,7.29839992 177.815215,7.29839992 C176.632766,7.29839992 175.670089,6.33977461 175.670089,5.16224672 C175.669841,3.98348348 176.633014,3.02510524 177.815215,3.02510524 Z M179.911723,14.532315 C180.966675,14.2929057 181.984171,13.8775838 182.920803,13.2912905 C183.630223,12.8460733 183.844041,11.9124019 183.397305,11.2062805 C182.950817,10.4989237 182.013937,10.2854566 181.303773,10.7309209 C179.180723,12.0603959 176.448218,12.0594076 174.326904,10.7309209 C173.616492,10.2854566 172.679364,10.4989237 172.23362,11.2062805 C171.786636,11.912896 172.000455,12.8465674 172.709378,13.2912905 C173.645762,13.8768426 174.663258,14.2931528 175.717962,14.532315 L172.821,17.4183207 C172.228659,18.0088142 172.228659,18.9662041 172.821744,19.5566976 C173.11841,19.8514501 173.506359,19.999197 173.894555,19.999197 C174.283496,19.999197 174.67194,19.8514501 174.968607,19.5566976 L177.814719,16.7213408 L180.662567,19.5569446 C181.254659,20.1476851 182.215849,20.1476851 182.808189,19.5569446 C183.402266,18.9662041 183.402266,18.00832 182.808189,17.4188149 L179.911723,14.532315 Z" id="Combined-Shape"></path>
            </g>
        </g>
    </g>
</svg>