<?xml version="1.0" encoding="UTF-8"?>
<svg width="21px" height="17px" viewBox="0 0 21 17" version="1.1" xmlns="http://www.w3.org/2000/svg" xmlns:xlink="http://www.w3.org/1999/xlink">
    <!-- Generator: sketchtool 41.2 (35397) - http://www.bohemiancoding.com/sketch -->
    <title>EAC42BEE-CBE3-4B41-8EEF-6743B4739065</title>
    <desc>Created with sketchtool.</desc>
    <defs></defs>
    <g id="desktop" stroke="none" stroke-width="1" fill="none" fill-rule="evenodd">
        <g id="main-1024" transform="translate(-847.000000, -42.000000)" fill="#577B89">
            <g id="socials" transform="translate(735.000000, 40.000000)">
                <path d="M133,4.00218657 C132.227462,4.34193106 131.396596,4.57160449 130.525086,4.67429649 C131.414901,4.14577089 132.097775,3.30978421 132.420131,2.31238046 C131.587404,2.8018585 130.665322,3.15697605 129.683982,3.34821685 C128.898103,2.51868685 127.778388,2 126.538605,2 C124.15956,2 122.230077,3.91210047 122.230077,6.26971205 C122.230077,6.60453717 122.268239,6.93013845 122.34208,7.24282637 C118.761413,7.06480641 115.586872,5.36516154 113.461617,2.78125861 C113.090861,3.41186129 112.878335,4.14577089 112.878335,4.92825935 C112.878335,6.40899192 113.639394,7.71631644 114.794788,8.48189454 C114.088955,8.45975734 113.424076,8.26790162 112.843587,7.94752717 C112.842966,7.96566738 112.842966,7.98380758 112.842966,8.00164032 C112.842966,10.0702385 114.328783,11.7957101 116.29953,12.187723 C115.938392,12.2854956 115.557087,12.337764 115.164613,12.337764 C114.886313,12.337764 114.616701,12.3110149 114.353603,12.2615136 C114.902136,13.9574689 116.49282,15.1919252 118.378557,15.2263608 C116.903599,16.3716534 115.046405,17.054217 113.027258,17.054217 C112.680082,17.054217 112.336318,17.034232 112,16.9945695 C113.905904,18.2062736 116.171084,18.9131267 118.604113,18.9131267 C126.528987,18.9131267 130.862645,12.4075576 130.862645,6.76441693 C130.862645,6.57963282 130.858612,6.39515617 130.849925,6.21221683 C131.69227,5.61020803 132.422613,4.85846568 133,4.00218657" id="Fill-4"></path>
            </g>
        </g>
    </g>
</svg>