<?xml version="1.0" encoding="UTF-8"?>
<svg width="25px" height="14px" viewBox="0 0 25 14" version="1.1" xmlns="http://www.w3.org/2000/svg" xmlns:xlink="http://www.w3.org/1999/xlink">
    <!-- Generator: sketchtool 41.2 (35397) - http://www.bohemiancoding.com/sketch -->
    <title>4930468A-ACC3-499B-853F-D03A8FF0EA5E</title>
    <desc>Created with sketchtool.</desc>
    <defs></defs>
    <g id="desktop" stroke="none" stroke-width="1" fill="none" fill-rule="evenodd">
        <g id="main-1024" transform="translate(-783.000000, -43.000000)" fill="#577B89">
            <g id="socials" transform="translate(735.000000, 40.000000)">
                <path d="M60.0067986,16.9412588 L61.4735828,16.9412588 C61.4735828,16.9412588 61.9165428,16.8924394 62.1430466,16.6487536 C62.3512105,16.4247897 62.3445992,16.0044652 62.3445992,16.0044652 C62.3445992,16.0044652 62.3158753,14.0363021 63.2292117,13.7464489 C64.1298858,13.4608165 65.2861984,15.6486106 66.5117246,16.4899319 C67.4385079,17.1263764 68.1427839,16.98709 68.1427839,16.98709 L71.4200302,16.9412588 C71.4200302,16.9412588 73.1343102,16.8354773 72.3214139,15.4876225 C72.2548522,15.3775455 71.8478251,14.4905798 69.8846299,12.6682771 C67.8295109,10.7609982 68.1050208,11.0695648 70.5803523,7.7703555 C72.0878131,5.76117971 72.6903791,4.53460758 72.5020866,4.00932334 C72.3226839,3.50884097 71.2138459,3.64103047 71.2138459,3.64103047 L67.5239697,3.66385268 C67.5239697,3.66385268 67.2502527,3.62657516 67.0475049,3.74789517 C66.8491646,3.86656316 66.7219056,4.14379132 66.7219056,4.14379132 C66.7219056,4.14379132 66.1376422,5.69846533 65.3590726,7.02080855 C63.7160232,9.81075776 63.058923,9.95844842 62.7903232,9.78494737 C62.1654579,9.38113255 62.3215902,8.16303937 62.3215902,7.29743907 C62.3215902,4.59354938 62.7317176,3.46622209 61.5229624,3.17435186 C61.1219117,3.07757227 60.826493,3.01355057 59.8006517,3.00309194 C58.483986,2.98971985 57.369844,3.00712598 56.738853,3.31625294 C56.3190514,3.52183955 55.9951704,3.97985244 56.1925395,4.00622311 C56.4364495,4.03868218 56.9886273,4.15525846 57.2814313,4.55361986 C57.6596599,5.06818401 57.6464372,6.22337605 57.6464372,6.22337605 C57.6464372,6.22337605 57.8637524,9.40627059 57.1390073,9.80153176 C56.6416999,10.0727089 55.9593496,9.51911164 54.4944703,6.98790125 C53.7440269,5.69133106 53.1772444,4.25801441 53.1772444,4.25801441 C53.1772444,4.25801441 53.0681012,3.990199 52.8731599,3.84684119 C52.6367204,3.67315338 52.30634,3.61809621 52.30634,3.61809621 L48.7998632,3.64099312 C48.7998632,3.64099312 48.2735705,3.65570989 48.0801981,3.88456693 C47.9081537,4.08832328 48.0664524,4.50928278 48.0664524,4.50928278 C48.0664524,4.50928278 50.8114669,10.9316978 53.9199558,14.1682675 C56.7704904,17.1360506 60.0067986,16.9412588 60.0067986,16.9412588" id="Fill-1"></path>
            </g>
        </g>
    </g>
</svg>