<?xml version="1.0" encoding="UTF-8"?>
<svg width="20px" height="20px" viewBox="0 0 20 20" version="1.1" xmlns="http://www.w3.org/2000/svg" xmlns:xlink="http://www.w3.org/1999/xlink">
    <!-- Generator: Sketch 41.2 (35397) - http://www.bohemiancoding.com/sketch -->
    <title>Combined Shape</title>
    <desc>Created with Sketch.</desc>
    <defs></defs>
    <g id="desktop" stroke="none" stroke-width="1" fill="none" fill-rule="evenodd">
        <g id="UI-kit" transform="translate(-2023.000000, -2556.000000)" fill="#4593D4">
            <g id="4" transform="translate(1603.000000, 2516.000000)">
                <g id="close" transform="translate(211.000000, 40.000000)">
                    <path d="M218.021893,9.9057765 L209.183058,1.06694174 C208.938981,0.822864056 208.938981,0.427135944 209.183058,0.183058262 C209.427136,-0.0610194206 209.822864,-0.0610194206 210.066942,0.183058262 L218.905777,9.02189303 L227.744611,0.183058262 C227.988689,-0.0610194206 228.384417,-0.0610194206 228.628495,0.183058262 C228.872572,0.427135944 228.872572,0.822864056 228.628495,1.06694174 L219.78966,9.9057765 L228.628495,18.7446113 C228.872572,18.988689 228.872572,19.3844171 228.628495,19.6284947 C228.384417,19.8725724 227.988689,19.8725724 227.744611,19.6284947 L218.905777,10.78966 L210.066942,19.6284947 C209.822864,19.8725724 209.427136,19.8725724 209.183058,19.6284947 C208.938981,19.3844171 208.938981,18.988689 209.183058,18.7446113 L218.021893,9.9057765 Z" id="Combined-Shape"></path>
                </g>
            </g>
        </g>
    </g>
</svg>