<?xml version="1.0" encoding="utf-8"?>
<!-- Generator: Adobe Illustrator 16.0.0, SVG Export Plug-In . SVG Version: 6.00 Build 0)  -->
<!DOCTYPE svg PUBLIC "-//W3C//DTD SVG 1.1//EN" "http://www.w3.org/Graphics/SVG/1.1/DTD/svg11.dtd">
<svg version="1.1" id="Слой_1" xmlns="http://www.w3.org/2000/svg" xmlns:xlink="http://www.w3.org/1999/xlink" x="0px" y="0px"
	 width="258.479px" height="125px" viewBox="0 0 258.479 125" enable-background="new 0 0 258.479 125" xml:space="preserve">
<title>A93B0500-E8E3-44BC-93AA-B04578958481</title>
<desc>Created with sketchtool.</desc>
<g id="widescreen">
	<g id="main-1440" transform="translate(-100.000000, -37.000000)">
		<g id="logo-on-dark" transform="translate(100.000000, 36.000000)">
			<polygon id="Fill-28" fill="#FBAF3F" points="6.914,20.642 0.294,20.642 0.294,0.998 20.154,0.998 20.154,7.546 6.914,7.546 			
				"/>
			<polygon id="Fill-29" fill="#FBAF3F" points="20.154,118.865 20.154,125.413 0.294,125.413 0.294,105.769 6.914,105.769 
				6.914,118.865 			"/>
			<polygon id="Fill-30" fill="#FBAF3F" points="251.858,105.769 258.479,105.769 258.479,125.413 238.619,125.413 238.619,118.865 
				251.858,118.865 			"/>
			<polygon id="Fill-31" fill="#FBAF3F" points="238.619,7.546 238.619,0.998 258.479,0.998 258.479,20.642 251.858,20.642 
				251.858,7.546 			"/>
			<polygon id="Fill-32" fill="#FFFFFF" points="111.343,66.479 103.462,66.479 102.824,67.111 102.824,105.137 103.462,105.769 
				111.343,105.769 111.927,105.137 111.927,67.111 			"/>
			<polygon id="Fill-33" fill="#FFFFFF" points="87.368,81.822 87.368,67.111 86.73,66.479 78.903,66.479 78.265,67.111 
				78.265,105.137 78.903,105.768 86.73,105.768 87.368,105.137 87.368,90.427 99.37,90.427 99.37,81.822 			"/>
			<polygon id="Fill-34" fill="#FFFFFF" points="131.861,75.084 149.464,75.084 150.103,74.453 150.103,67.111 149.464,66.479 
				131.861,66.479 			"/>
			<polygon id="Fill-35" fill="#FFFFFF" points="131.861,90.254 144.394,90.254 145.032,89.623 145.032,82.626 144.394,81.994 
				131.861,81.994 			"/>
			<polygon id="Fill-36" fill="#FFFFFF" points="128.407,66.479 119.942,66.479 119.304,67.111 119.304,105.137 119.942,105.769 
				128.407,105.769 			"/>
			<polygon id="Fill-37" fill="#FFFFFF" points="149.579,97.164 131.861,97.164 131.861,105.769 149.579,105.769 150.217,105.137 
				150.217,97.795 			"/>
			<polygon id="Fill-38" fill="#FFFFFF" points="207.118,66.479 198.653,66.479 198.015,67.111 198.015,105.137 198.653,105.769 
				207.118,105.769 			"/>
			<path id="Fill-39" fill="#FFFFFF" d="M215.417,66.479h-4.844v8.146h4.844c3.825,0,6.493,2.121,6.493,5.733V91.89
				c0,3.612-2.668,5.733-6.493,5.733h-4.844v8.146h4.844c8.813,0,15.597-3.957,15.597-12.907V79.387
				C231.014,70.437,224.23,66.479,215.417,66.479"/>
			<polygon id="Fill-40" fill="#FFFFFF" points="166.264,66.479 165.625,67.111 154.144,105.137 154.782,105.769 162.787,105.769 
				163.42,105.137 174.347,66.479 			"/>
			<polygon id="Fill-41" fill="#FFFFFF" points="181.798,67.111 181.16,66.479 177.938,66.479 175.536,75.099 179.587,89.881 
				171.315,89.881 168.996,97.974 181.804,97.974 183.768,105.137 184.406,105.77 192.642,105.77 193.28,105.137 			"/>
			<polygon id="Fill-42" fill="#FFFFFF" points="47.309,35.267 47.947,34.635 54.092,34.635 54.73,35.267 55.145,36.356 
				45.628,59.299 44.989,59.931 37.062,59.931 			"/>
			<polygon id="Fill-43" fill="#FFFFFF" points="57.479,39.759 62.07,51.84 61.943,51.84 65.489,21.274 66.128,20.643 
				73.954,20.643 74.592,21.274 69.839,59.299 69.201,59.932 57.688,59.932 57.05,59.299 53.378,49.63 			"/>
			<polygon id="Fill-44" fill="#FFFFFF" points="27.412,20.643 35.239,20.643 35.877,21.273 38.811,46.715 33.294,59.932 
				32.166,59.932 31.527,59.3 26.774,21.273 			"/>
			<polygon id="Fill-45" fill="#FFFFFF" points="87.673,20.642 87.035,21.273 75.552,59.3 76.19,59.931 84.196,59.931 84.829,59.3 
				95.755,20.642 			"/>
			<polygon id="Fill-46" fill="#FFFFFF" points="103.191,21.274 102.553,20.643 99.331,20.643 96.929,29.262 100.98,44.044 
				92.708,44.044 90.389,52.136 103.197,52.136 105.161,59.299 105.799,59.932 114.035,59.932 114.673,59.299 			"/>
			<polygon id="Fill-47" fill="#FFFFFF" points="119.304,21.274 119.304,59.299 119.942,59.932 127.77,59.932 128.408,59.299 
				128.408,20.643 119.942,20.643 			"/>
			<path id="Fill-48" fill="#FFFFFF" d="M135.377,49.646l5.667,9.712l0.873,0.573h9.22l0.465-0.631l-6.015-10.256
				c-1.851,0.499-3.577,0.602-5.134,0.602H135.377z"/>
			<path id="Fill-49" fill="#FFFFFF" d="M154.18,33.663c0-7.115-4.928-13.02-14.899-13.02h-7.419v8.259h7.998
				c3.362,0,5.217,2.235,5.217,4.761c0,2.521-1.855,4.816-5.217,4.816h-7.998v8.146h8.227c2.616,0,5.442-0.296,8.584-2.408
				C152.421,41.699,154.18,38.02,154.18,33.663"/>
		</g>
	</g>
</g>
</svg>
