<?xml version="1.0" encoding="UTF-8"?>
<svg width="180px" height="44px" viewBox="0 0 180 44" version="1.1" xmlns="http://www.w3.org/2000/svg" xmlns:xlink="http://www.w3.org/1999/xlink">
    <!-- Generator: sketchtool 41.1 (35376) - http://www.bohemiancoding.com/sketch -->
    <title>DBB5EDDA-3609-42D8-BF7D-771B3ACB0604</title>
    <desc>Created with sketchtool.</desc>
    <defs></defs>
    <g id="desktop" stroke="none" stroke-width="1" fill="none" fill-rule="evenodd">
        <g id="article-1024" transform="translate(-51.000000, -29.000000)">
            <g id="header">
                <g id="logo" transform="translate(51.000000, 29.000000)">
                    <polygon id="Fill-48" fill="#FEFEFE" points="102.936538 10.8082615 98.677349 10.8082615 98.3328496 11.1551846 98.3328496 32.0763385 98.677349 32.4241077 102.936538 32.4241077 103.251629 32.0763385 103.251629 11.1551846"></polygon>
                    <polygon id="Fill-49" fill="#FEFEFE" points="89.9792432 19.2491538 89.9792432 11.1556923 89.6347438 10.8079231 85.4049634 10.8079231 85.060464 11.1556923 85.060464 32.076 85.4049634 32.4237692 89.6347438 32.4237692 89.9792432 32.076 89.9792432 23.9833846 96.4659149 23.9833846 96.4659149 19.2491538"></polygon>
                    <polygon id="Fill-50" fill="#FEFEFE" points="114.743373 15.5422385 124.255757 15.5422385 124.600257 15.1953154 124.600257 11.1549308 124.255757 10.8080077 114.743373 10.8080077"></polygon>
                    <polygon id="Fill-51" fill="#FEFEFE" points="114.743373 23.8881077 121.515727 23.8881077 121.860226 23.5411846 121.860226 19.6911846 121.515727 19.3442615 114.743373 19.3442615"></polygon>
                    <polygon id="Fill-52" fill="#FEFEFE" points="112.876606 10.8082615 108.302326 10.8082615 107.956987 11.1551846 107.956987 32.0763385 108.302326 32.4241077 112.876606 32.4241077"></polygon>
                    <polygon id="Fill-53" fill="#FEFEFE" points="124.317515 27.6900462 114.742953 27.6900462 114.742953 32.4242769 124.317515 32.4242769 124.662855 32.0765077 124.662855 28.0369692"></polygon>
                    <polygon id="Fill-54" fill="#FEFEFE" points="156.250845 10.8082615 151.676565 10.8082615 151.332066 11.1551846 151.332066 32.0763385 151.676565 32.4241077 156.250845 32.4241077"></polygon>
                    <path d="M160.216622,10.8082615 L158.117696,10.8082615 L158.117696,15.2894923 L160.216622,15.2894923 C162.284458,15.2894923 163.727154,16.4571846 163.727154,18.4439538 L163.727154,24.7875692 C163.727154,26.7751846 162.284458,27.9420308 160.216622,27.9420308 L158.117696,27.9420308 L158.117696,32.4241077 L160.216622,32.4241077 C164.979956,32.4241077 168.645934,30.2469538 168.645934,25.3223385 L168.645934,17.9100308 C168.645934,12.9845692 164.979956,10.8082615 160.216622,10.8082615" id="Fill-55" fill="#FEFEFE"></path>
                    <polygon id="Fill-56" fill="#FEFEFE" points="133.310798 10.8082615 132.965458 11.1551846 126.760268 32.0763385 127.104767 32.4241077 131.432016 32.4241077 131.773995 32.0763385 137.678378 10.8082615"></polygon>
                    <polygon id="Fill-57" fill="#FEFEFE" points="141.705828 11.1552692 141.360489 10.8083462 139.620347 10.8083462 138.321332 15.5501923 140.510163 23.6834231 136.040914 23.6834231 134.787272 28.1341923 141.709189 28.1341923 142.770416 32.0764231 143.115755 32.4241923 147.565679 32.4241923 147.911019 32.0764231"></polygon>
                    <polygon id="Fill-58" fill="#FEFEFE" points="22.7343884 18.8541692 23.0797281 18.5064 26.4003662 18.5064 26.7457058 18.8541692 26.9692103 19.4532462 21.8260863 32.0761692 21.4815869 32.4239385 17.1971907 32.4239385"></polygon>
                    <polygon id="Fill-59" fill="#FEFEFE" points="28.2312545 21.3257 30.7116502 27.9713923 30.6435905 27.9713923 32.5593433 11.1549308 32.9046829 10.8080077 37.1344634 10.8080077 37.479803 11.1549308 34.9103417 32.0760846 34.565002 32.4238538 28.343847 32.4238538 27.9993476 32.0760846 26.0138547 26.7571615"></polygon>
                    <polygon id="Fill-60" fill="#FEFEFE" points="11.9818899 10.8082615 16.2108301 10.8082615 16.5561697 11.1551846 18.1425475 25.1531077 15.160527 32.4241077 14.5513513 32.4241077 14.2051714 32.0763385 11.6373905 11.1551846"></polygon>
                    <polygon id="Fill-61" fill="#FEFEFE" points="44.5478385 10.8082615 44.2033391 11.1551846 37.9981486 32.0763385 38.342648 32.4241077 42.6698966 32.4241077 43.0118753 32.0763385 48.9162589 10.8082615"></polygon>
                    <polygon id="Fill-62" fill="#FEFEFE" points="52.9347184 11.1552692 52.590219 10.8083462 50.8492367 10.8083462 49.5510621 15.5501923 51.7398937 23.6834231 47.2698039 23.6834231 46.0170024 28.1341923 52.9380794 28.1341923 54.0001458 32.0764231 54.3446452 32.4241923 58.7954095 32.4241923 59.1399089 32.0764231"></polygon>
                    <polygon id="Fill-63" fill="#FEFEFE" points="61.9468228 11.1552692 61.9468228 32.0764231 62.2913222 32.4241923 66.5211026 32.4241923 66.865602 32.0764231 66.865602 10.8083462 62.2913222 10.8083462"></polygon>
                    <path d="M70.6323249,26.7653692 L73.6950086,32.1088308 L74.1663846,32.4236 L79.1498625,32.4236 L79.4002548,32.0758308 L76.1493568,26.4336769 C75.1494683,26.7086769 74.2167991,26.7653692 73.3757165,26.7653692 L70.6323249,26.7653692 Z" id="Fill-64" fill="#FEFEFE"></path>
                    <path d="M80.7939649,17.9716308 C80.7939649,14.0573231 78.1303964,10.8080923 72.7419216,10.8080923 L68.7331249,10.8080923 L68.7331249,15.3519385 L73.055332,15.3519385 C74.8719362,15.3519385 75.8751856,16.5814 75.8751856,17.9716308 C75.8751856,19.3593231 74.8719362,20.6209385 73.055332,20.6209385 L68.7331249,20.6209385 L68.7331249,25.1030154 L73.1788476,25.1030154 C74.5921354,25.1030154 76.1205364,24.9388615 77.8178262,23.7779385 C79.8436507,22.3936308 80.7939649,20.3687846 80.7939649,17.9716308" id="Fill-65" fill="#FEFEFE"></path>
                    <polygon id="Fill-66" fill="#FBAF3F" points="4.39181184 10.8082615 0.814059517 10.8082615 0.814059517 0.000338461538 11.5473165 0.000338461538 11.5473165 3.60241538 4.39181184 3.60241538"></polygon>
                    <polygon id="Fill-67" fill="#FBAF3F" points="11.5469804 39.6295308 11.5469804 43.2324538 0.814563662 43.2324538 0.814563662 32.4236846 4.39147574 32.4236846 4.39147574 39.6295308"></polygon>
                    <polygon id="Fill-68" fill="#FBAF3F" points="176.111404 32.4240231 179.689156 32.4240231 179.689156 43.2319462 168.955899 43.2319462 168.955899 39.6298692 176.111404 39.6298692"></polygon>
                    <polygon id="Fill-69" fill="#FBAF3F" points="168.956235 3.60275385 168.956235 -0.000169230769 179.688652 -0.000169230769 179.688652 10.8086 176.11174 10.8086 176.11174 3.60275385"></polygon>
                </g>
            </g>
        </g>
    </g>
</svg>